<svg width="841" height="595" viewBox="0 0 841 595" fill="none" xmlns="http://www.w3.org/2000/svg">
<rect width="841" height="595" fill="white"/>
<path d="M511.028 231C511.028 250 510.528 250 509.528 264.5C481.528 225.5 450.028 249.5 437.028 273C431.051 287.116 435.028 350.5 435.028 350.5C435.028 350.5 438.528 370.257 466.528 369.5C503.528 368.5 488.028 311 469.028 298.5C485.528 299 511.528 293.5 537.528 291C520.528 310.5 519.528 325 519.528 325C519.528 325 504.528 391.5 466.528 391.5C428.528 391.5 409.452 353.404 409.028 316.5C408.028 229.5 511.028 212 511.028 231Z" fill="black"/>
<path d="M430.527 202C414.527 203 378.027 205 359.527 205C384.066 219.218 384.207 245.5 383.527 282C382.643 329.5 376.462 346.88 351.028 355C319.028 365.216 310.42 333.978 319.028 314.5C325.124 300.704 333.979 291.902 332.528 289C326.306 276.557 304.109 307.258 305.028 338C305.733 361.612 327.501 386.711 354.027 379.5C405.528 365.5 400.528 324 400.528 254.5C400.528 220 424.809 212.533 430.527 202Z" fill="black"/>
<circle cx="421" cy="297" r="220" stroke="black" stroke-width="4"/>
</svg>
