<svg width="50" height="49" viewBox="0 0 50 49" fill="none" xmlns="http://www.w3.org/2000/svg">
<g clip-path="url(#clip0_328_1205)">
<path fill-rule="evenodd" clip-rule="evenodd" d="M2.05127 2.06396H47.1795V45.9614H2.05127V2.06396Z" fill="#1F0040"/>
<path fill-rule="evenodd" clip-rule="evenodd" d="M0 0.0126953V48.0127H49.231V0.0126953H0ZM2.05128 2.06398H47.1797V45.9614H2.05128V2.06398Z" fill="#D291FF"/>
<path fill-rule="evenodd" clip-rule="evenodd" d="M13.915 27.1922L12.2904 33.3184C12.2564 33.4874 12.1887 33.5512 11.9856 33.5512H8.9735C8.77043 33.5512 8.73638 33.4835 8.77043 33.2468L14.5918 12.8714C14.6935 12.4993 14.7612 12.2056 14.7948 11.1904C14.7948 11.055 14.8625 10.9873 14.9643 10.9873H19.2627C19.3977 10.9873 19.4654 11.0214 19.4995 11.1904L26.032 33.2804C26.0656 33.4499 26.032 33.5512 25.8625 33.5512H22.4779C22.3089 33.5512 22.2071 33.4874 22.1735 33.3524L20.4812 27.1922H13.915ZM19.6718 23.8622C19.0964 21.5945 17.7054 16.6209 17.1977 14.2179H17.1641C16.7241 16.6209 15.6131 20.6786 14.7669 23.8601L19.6718 23.8622ZM30.6677 25.9615C30.7017 28.737 32.0219 30.5984 35.1356 30.5984C36.3538 30.5984 37.3979 30.4374 38.481 29.9633C38.6164 29.8956 38.7181 29.9297 38.7181 30.0987V32.6712C38.7181 32.8743 38.6504 32.9756 38.515 33.0772C37.4322 33.6189 36.0832 33.8556 34.3909 33.8556C28.9758 33.8556 26.9448 29.862 26.9448 25.3941C26.9448 20.5543 29.4492 16.5945 33.8496 16.5945C38.3171 16.5945 39.874 20.3512 39.874 23.3974C39.874 24.3789 39.8063 25.1914 39.705 25.5635C39.6709 25.7325 39.6032 25.7922 39.4342 25.8259C39.0281 25.8936 37.8096 25.9613 36.0156 25.9613L30.6677 25.9615ZM34.8307 23.1409C35.88 23.1409 36.2527 23.1409 36.354 23.1073C36.354 22.9719 36.3881 22.8556 36.3881 22.7543C36.3881 21.6374 35.8463 19.5873 33.7142 19.5873C31.7511 19.5873 30.905 21.3133 30.7017 23.1409H34.8307Z" fill="#D291FF"/>
</g>
<defs>
<clipPath id="clip0_328_1205">
<rect width="49.231" height="48" fill="white" transform="translate(0 0.0126953)"/>
</clipPath>
</defs>
</svg>
