<svg width="50" height="48" viewBox="0 0 50 48" fill="none" xmlns="http://www.w3.org/2000/svg">
<path d="M39.8361 0.983398H9.3443C4.72684 0.983398 0.983643 4.72659 0.983643 9.34405V38.6555C0.983643 43.273 4.72684 47.0162 9.3443 47.0162H39.8361C44.4536 47.0162 48.1968 43.273 48.1968 38.6555V9.34405C48.1968 4.72659 44.4536 0.983398 39.8361 0.983398Z" fill="white"/>
<path d="M37.6952 35.5965H32.0874C31.8438 35.601 31.6043 35.5329 31.3995 35.4008C31.1947 35.2688 31.0337 35.0788 30.9372 34.8551L24.8493 20.6205C24.8333 20.5651 24.8 20.5164 24.7542 20.4815C24.7084 20.4465 24.6525 20.4273 24.5949 20.4265C24.5373 20.4258 24.481 20.4436 24.4343 20.4773C24.3876 20.511 24.353 20.5589 24.3356 20.6138L20.5417 29.6518C20.5211 29.7007 20.5129 29.7539 20.5179 29.8066C20.5229 29.8594 20.5408 29.9102 20.5702 29.9544C20.5995 29.9985 20.6393 30.0348 20.686 30.0599C20.7327 30.085 20.7849 30.0981 20.8379 30.0981H25.0084C25.1347 30.0982 25.2582 30.1354 25.3635 30.2051C25.4688 30.2749 25.5513 30.3741 25.6005 30.4904L27.4263 34.5537C27.4747 34.6677 27.4941 34.7919 27.4828 34.9152C27.4714 35.0385 27.4297 35.1571 27.3614 35.2604C27.2931 35.3636 27.2003 35.4484 27.0912 35.507C26.9821 35.5657 26.8603 35.5964 26.7364 35.5965H11.5543C11.4401 35.5958 11.3278 35.5669 11.2275 35.5124C11.1272 35.4578 11.042 35.3792 10.9794 35.2837C10.9168 35.1882 10.8788 35.0787 10.8689 34.9649C10.8589 34.8512 10.8772 34.7367 10.9222 34.6318L20.5792 11.6347C20.6779 11.3913 20.8477 11.1833 21.0664 11.0378C21.2851 10.8924 21.5426 10.8163 21.8052 10.8194H27.3752C27.6379 10.816 27.8955 10.892 28.1142 11.0375C28.333 11.1829 28.5027 11.3911 28.6011 11.6347L38.3251 34.6318C38.37 34.7366 38.3884 34.8508 38.3786 34.9644C38.3687 35.078 38.3309 35.1874 38.2686 35.2829C38.2063 35.3784 38.1213 35.457 38.0212 35.5117C37.9212 35.5664 37.8092 35.5955 37.6952 35.5965Z" fill="#FA0F00"/>
</svg>
