<svg width="50" height="49" viewBox="0 0 50 49" fill="none" xmlns="http://www.w3.org/2000/svg">
<g clip-path="url(#clip0_340_1278)">
<g clip-path="url(#clip1_340_1278)">
<path d="M16 24.0128C16 19.6396 19.5452 16.0942 23.9186 16.0942C28.2918 16.0942 31.8371 19.6396 31.8371 24.0128C31.8371 28.3861 28.2918 31.9313 23.9186 31.9313C19.5452 31.9313 16 28.3861 16 24.0128Z" fill="#1ABCFE"/>
<path d="M0.162842 39.8497C0.162842 35.4765 3.70809 31.9312 8.08139 31.9312H15.9999V39.8497C15.9999 44.223 12.4547 47.7683 8.08139 47.7683C3.70809 47.7683 0.162842 44.223 0.162842 39.8497Z" fill="#0ACF83"/>
<path d="M16 0.256836V16.0939H23.9186C28.2919 16.0939 31.8371 12.5487 31.8371 8.17538C31.8371 3.8021 28.2919 0.256836 23.9186 0.256836H16Z" fill="#FF7262"/>
<path d="M0.162842 8.17539C0.162842 12.5487 3.70809 16.0939 8.08139 16.0939H15.9999V0.256836H8.08139C3.70809 0.256836 0.162842 3.80209 0.162842 8.17539Z" fill="#F24E1E"/>
<path d="M0.162842 24.0128C0.162842 28.3861 3.70809 31.9313 8.08139 31.9313H15.9999V16.0942H8.08139C3.70809 16.0942 0.162842 19.6396 0.162842 24.0128Z" fill="#A259FF"/>
</g>
</g>
<defs>
<clipPath id="clip0_340_1278">
<rect width="49.2307" height="48" fill="white" transform="translate(0 0.0126953)"/>
</clipPath>
<clipPath id="clip1_340_1278">
<rect width="32" height="48" fill="white" transform="translate(0 0.0126953)"/>
</clipPath>
</defs>
</svg>
