<svg width="54" height="49" viewBox="0 0 54 49" fill="none" xmlns="http://www.w3.org/2000/svg">
<g clip-path="url(#clip0_340_1303)">
<path d="M11.5672 1.59227L26.5082 0.0126953L41.4493 1.59227L53.0165 17.1203L26.5082 47.9888L0 17.1203L11.5672 1.59227Z" fill="#FDB300"/>
<path d="M10.7372 17.1201L26.5083 47.9887L0 17.1201H10.7372Z" fill="#EA6C00"/>
<path d="M42.2792 17.1201L26.5081 47.9887L53.0164 17.1201H42.2792Z" fill="#EA6C00"/>
<path d="M10.7371 17.1201H42.2793L26.5082 47.9887L10.7371 17.1201Z" fill="#FDAD00"/>
<path d="M26.5082 0.0126953L11.5671 1.59225L10.7371 17.1202L26.5082 0.0126953Z" fill="#FDD231"/>
<path d="M26.5082 0.0126953L41.4493 1.59225L42.2793 17.1202L26.5082 0.0126953Z" fill="#FDD231"/>
<path d="M53.0166 17.1203L41.4493 1.59229L42.2794 17.1203H53.0166Z" fill="#FDAD00"/>
<path d="M0 17.1203L11.5672 1.59229L10.7372 17.1203H0Z" fill="#FDAD00"/>
<path d="M26.5082 0.0126953L10.7371 17.1202H42.2793L26.5082 0.0126953Z" fill="#FEEEB7"/>
</g>
<defs>
<clipPath id="clip0_340_1303">
<rect width="53.1236" height="48" fill="white" transform="translate(0 0.0126953)"/>
</clipPath>
</defs>
</svg>
