<svg width="50" height="49" viewBox="0 0 50 49" fill="none" xmlns="http://www.w3.org/2000/svg">
<g clip-path="url(#clip0_328_1211)">
<path d="M2.05127 2.06396H47.1795V45.9615H2.05127V2.06396Z" fill="url(#paint0_radial_328_1211)"/>
<path d="M2.05125 2.06395H47.1795V45.9614H2.05125V2.06395ZM0 48.0128H49.2308V0.0126953H0V48.0128ZM32.2461 17.1204C32.2461 16.9563 32.3077 16.8742 32.4923 16.8742H35.7128C35.8768 16.8742 35.9589 16.9357 35.9589 17.1204V33.3051C35.9589 33.4691 35.9179 33.5512 35.7128 33.5512H32.5333C32.3282 33.5512 32.2666 33.4486 32.2666 33.2846V17.1204H32.2461ZM32.0205 12.464C32.0205 11.1511 32.9435 10.3717 34.1129 10.3717C35.3641 10.3717 36.2051 11.2127 36.2051 12.464C36.2051 13.8178 35.3231 14.5562 34.0718 14.5562C32.882 14.5563 32.0205 13.8178 32.0205 12.464ZM22.7897 23.8691C22.2155 21.5922 20.8616 16.6281 20.3487 14.2281H20.3077C19.8769 16.6281 18.7898 20.6896 17.9283 23.8691H22.7897ZM17.0872 27.1922L15.4667 33.3461C15.4256 33.5101 15.3641 33.5511 15.159 33.5511H12.1436C11.9385 33.5511 11.8974 33.4896 11.9385 33.2435L17.7641 12.8536C17.8667 12.4845 17.9282 12.1562 17.9692 11.1511C17.9692 11.0076 18.0307 10.946 18.1333 10.946H22.441C22.5846 10.946 22.6461 10.9871 22.6872 11.1511L29.2102 33.2845C29.2512 33.4485 29.2102 33.5511 29.0461 33.5511H25.641C25.4769 33.5511 25.3743 33.5101 25.3333 33.3666L23.6512 27.1922H17.0872Z" fill="#FF7F18"/>
</g>
<defs>
<radialGradient id="paint0_radial_328_1211" cx="0" cy="0" r="1" gradientUnits="userSpaceOnUse" gradientTransform="translate(16.9143 11.9014) scale(34.2975 33.2062)">
<stop stop-color="#423325" stop-opacity="0.98"/>
<stop offset="1" stop-color="#1C0A00"/>
</radialGradient>
<clipPath id="clip0_328_1211">
<rect width="49.2307" height="48" fill="white" transform="translate(0 0.0126953)"/>
</clipPath>
</defs>
</svg>
