<svg width="50" height="49" viewBox="0 0 50 49" fill="none" xmlns="http://www.w3.org/2000/svg">
<g clip-path="url(#clip0_328_1214)">
<path d="M2.05127 2.06396H47.1795V45.9615H2.05127V2.06396Z" fill="url(#paint0_radial_328_1214)"/>
<path d="M2.05125 2.06395H47.1795V45.9614H2.05125V2.06395ZM0 48.0128H49.2308V0.0126953H0V48.0128ZM33.1897 19.705C31.5692 19.705 31.0154 20.5255 31.0154 21.2024C31.0154 21.9408 31.3846 22.4537 33.559 23.5819C36.7795 25.1409 37.7847 26.6383 37.7847 28.8332C37.7847 32.1152 35.2821 33.8794 31.8974 33.8794C30.1128 33.8794 28.5743 33.5101 27.6923 32.9973C27.5487 32.9358 27.5282 32.8333 27.5282 32.6691V29.6537C27.5282 29.4486 27.6308 29.387 27.7744 29.4896C29.0667 30.3307 30.5436 30.6999 31.8974 30.6999C33.518 30.6999 34.1949 30.023 34.1949 29.0998C34.1949 28.3614 33.7231 27.705 31.6512 26.6383C28.7384 25.2435 27.5282 23.8281 27.5282 21.4691C27.5282 18.8229 29.6001 16.6281 33.1897 16.6281C34.9539 16.6281 36.1846 16.8948 36.8615 17.2024C37.0256 17.305 37.0666 17.4691 37.0666 17.6126V20.4229C37.0666 20.5869 36.9641 20.6896 36.7589 20.628C35.8564 20.0538 34.5231 19.705 33.1897 19.705ZM15.5487 22.146C16.0205 22.187 16.3898 22.187 17.2103 22.187C19.6104 22.187 21.8667 21.3461 21.8667 18.0845C21.8667 15.4794 20.2462 14.1665 17.518 14.1665C16.6975 14.1665 15.918 14.2076 15.5487 14.2281V22.146ZM11.8975 11.2537C11.8975 11.1101 12.1847 11.0075 12.3487 11.0075C13.6616 10.946 15.6103 10.9049 17.6411 10.9049C23.3231 10.9049 25.5384 14.0229 25.5384 18.0024C25.5384 23.2126 21.7641 25.4486 17.1282 25.4486C16.3488 25.4486 16.0821 25.4075 15.5282 25.4075V33.2845C15.5282 33.4486 15.4667 33.5306 15.2821 33.5306H12.1436C11.9795 33.5306 11.8974 33.4691 11.8974 33.2845V11.2537H11.8975Z" fill="#31C5F0"/>
</g>
<defs>
<radialGradient id="paint0_radial_328_1214" cx="0" cy="0" r="1" gradientUnits="userSpaceOnUse" gradientTransform="translate(16.9143 11.9014) scale(34.2975 33.2062)">
<stop stop-color="#34364E" stop-opacity="0.98"/>
<stop offset="1" stop-color="#0C0824"/>
</radialGradient>
<clipPath id="clip0_328_1214">
<rect width="49.2307" height="48" fill="white" transform="translate(0 0.0126953)"/>
</clipPath>
</defs>
</svg>
